PathFileType	4	(X/Y/Z)
DataRate	CameraRate	NumFrames	NumMarkers	Units	OrigDataRate	OrigDataStartFrame	OrigNumFrames	
  120.0	  120.0	    4	     56	     mm	  120.0	      59	    465
Frame#	Time	LASI			RASI			LPSI			RPSI			RTH1			RTH2			RTH3			RLFC			RMFC			LTH1			LTH2			LTH3			LLFC			LMFC			RTB1			RTB2			RTB3			RLMAL			RMMAL			LTB1			LTB2			LTB3			LMMAL			LLMAL			RCAL			RTOE			RMT5			LCAL			LTOE			LMT5			LACR			RACR			CLAV			C7			LASH			LPSH			RASH			RPSH			RUA1			RUA2			RUA3			RLEL			RMEL			LUA1			LUA2			LUA3			LLEL			LMEL			RFAsuperior			RFAradius			RFAulna			LFAsuperior			LFAradius			LFAulna			RHJC			LHJC			
		X1	Y1	Z1	X2	Y2	Z2	X3	Y3	Z3	X4	Y4	Z4	X5	Y5	Z5	X6	Y6	Z6	X7	Y7	Z7	X8	Y8	Z8	X9	Y9	Z9	X10	Y10	Z10	X11	Y11	Z11	X12	Y12	Z12	X13	Y13	Z13	X14	Y14	Z14	X15	Y15	Z15	X16	Y16	Z16	X17	Y17	Z17	X18	Y18	Z18	X19	Y19	Z19	X20	Y20	Z20	X21	Y21	Z21	X22	Y22	Z22	X23	Y23	Z23	X24	Y24	Z24	X25	Y25	Z25	X26	Y26	Z26	X27	Y27	Z27	X28	Y28	Z28	X29	Y29	Z29	X30	Y30	Z30	X31	Y31	Z31	X32	Y32	Z32	X33	Y33	Z33	X34	Y34	Z34	X35	Y35	Z35	X36	Y36	Z36	X37	Y37	Z37	X38	Y38	Z38	X39	Y39	Z39	X40	Y40	Z40	X41	Y41	Z41	X42	Y42	Z42	X43	Y43	Z43	X44	Y44	Z44	X45	Y45	Z45	X46	Y46	Z46	X47	Y47	Z47	X48	Y48	Z48	X49	Y49	Z49	X50	Y50	Z50	X51	Y51	Z51	X52	Y52	Z52	X53	Y53	Z53	X54	Y54	Z54	X55	Y55	Z55	X56	Y56	Z56	

63	0.52500	619.42823	1111.43449	-639.59300	655.75175	1107.57751	-388.00876	463.22074	1142.62150	-532.96941	481.35887	1143.19592	-435.76446	628.89879	877.47835	-327.97879	643.10131	753.25023	-358.70440	557.30441	637.56349	-329.38031	548.43616	556.34513	-330.14225	541.16241	560.66725	-442.24324	542.66800	870.19947	-681.96687	589.10100	763.84200	-658.63969	526.93858	659.05126	-651.36902	515.26549	574.64329	-643.85281	527.72015	569.46255	-529.86579	562.57366	430.60743	-378.17966	504.51257	352.82685	-306.83964	535.04877	234.17218	-363.17031	486.53746	139.43866	-310.77252	499.22156	139.88649	-392.61029	534.51699	432.91474	-589.18215	477.57075	327.81300	-646.78572	515.35883	217.94033	-604.02489	479.89899	141.57132	-565.25152	464.95663	140.25768	-641.53198	417.61464	105.66667	-347.59850	630.62967	57.91590	-392.78333	624.32813	71.15017	-300.57322	404.20546	104.61717	-598.25295	626.64518	53.68963	-576.21284	603.16642	70.52929	-667.49745	514.66100	1558.76623	-663.22084	553.24840	1558.73703	-340.61719	626.25396	1510.32329	-491.50343	505.13842	1589.13114	-496.74138	573.18668	1506.33030	-634.36314	462.45377	1526.55740	-640.57542	612.95556	1515.59488	-366.62050	498.92202	1522.24696	-342.05912	571.95329	1480.98813	-265.47335	523.44319	1429.79292	-255.13303	574.86064	1384.70366	-226.94060	526.14310	1289.93285	-144.10495	522.24775	1241.50599	-202.37474	488.21283	1466.72705	-744.57560	452.88731	1388.88659	-740.29988	508.67534	1397.34894	-789.23748	462.87695	1296.72353	-870.32086	464.28168	1254.73611	-810.69287	612.58783	1312.64880	-145.88700	773.24688	1309.63329	-212.37009	779.28898	1291.73078	-151.79170	549.49290	1324.16889	-873.84179	712.96623	1330.43630	-817.46725	710.28045	1319.43503	-877.44184	601.74445	999.41109	-401.02567	566.17056	1006.02851	-614.53298	
64	0.53333	619.43541	1111.41994	-639.68818	655.73311	1107.58637	-388.03150	463.19889	1142.54605	-533.02126	481.33160	1143.18928	-435.76089	628.87690	877.47181	-327.97285	643.07950	753.24714	-358.71084	557.26590	637.47264	-329.48064	548.41305	556.34264	-330.14031	541.11853	560.68881	-442.21965	542.66093	870.18343	-681.95061	589.11201	763.84082	-658.62954	526.94039	659.03836	-651.34933	515.26435	574.64291	-643.85600	527.64060	569.46570	-529.83201	562.55967	430.60508	-378.18516	504.50890	352.84557	-306.81803	535.04191	234.17107	-363.17703	486.53322	139.43208	-310.77511	499.25302	139.86996	-392.61391	534.51670	432.91350	-589.16781	477.57745	327.80783	-646.79081	515.35606	217.94068	-604.02717	479.90727	141.56791	-565.23505	464.97664	140.25134	-641.53798	417.60138	105.66726	-347.59672	630.65086	57.91588	-392.78647	624.33876	71.15302	-300.57508	404.23408	104.62698	-598.28625	626.65742	53.69535	-576.20759	603.17607	70.54085	-667.50285	514.62709	1558.75674	-663.19885	553.24043	1558.74177	-340.59080	626.23285	1510.31647	-491.49509	505.11933	1589.11989	-496.72404	573.16352	1506.31330	-634.36928	462.43853	1526.54376	-640.56290	612.93692	1515.59114	-366.62840	498.91026	1522.23434	-342.04471	571.95526	1480.98081	-265.46362	523.43908	1429.77931	-255.13524	574.85518	1384.69553	-226.93897	526.14940	1289.91837	-144.09651	522.23379	1241.49998	-202.36121	488.17168	1466.74651	-744.46830	452.87466	1388.83659	-740.28175	508.64700	1397.33094	-789.24736	462.85454	1296.69578	-870.31277	464.29983	1254.69663	-810.68951	612.60479	1312.63575	-145.88555	773.25450	1309.59478	-212.39874	779.29506	1291.70818	-151.80691	549.45959	1324.14714	-873.84452	712.93898	1330.46218	-817.48443	710.24298	1319.43731	-877.46846	601.78249	999.40080	-401.07862	566.16636	1006.01071	-614.57690	
65	0.54167	619.42784	1111.40953	-639.73908	655.72207	1107.59025	-388.03272	463.17995	1142.45784	-533.09422	481.30602	1143.18556	-435.76015	628.86002	877.45566	-327.94154	643.07378	753.23850	-358.66552	557.24392	637.39002	-329.51744	548.39979	556.32649	-330.12463	541.10942	560.71862	-442.52054	542.66251	870.17001	-681.94358	589.13048	763.84232	-658.62203	526.95658	659.03093	-651.35880	515.27365	574.63657	-643.86134	527.60985	569.45997	-529.81631	562.55032	430.59386	-378.16834	504.52426	352.86447	-306.73973	535.03857	234.15604	-363.14622	486.52724	139.42229	-310.76613	499.28123	139.85861	-392.61945	534.51997	432.90676	-589.16050	477.59174	327.79899	-646.79297	515.35370	217.92390	-603.99727	479.92719	141.58207	-565.22888	465.00118	140.24713	-641.54689	417.59743	105.65383	-347.58424	630.67126	57.90095	-392.76103	624.35280	71.14650	-300.54550	404.25950	104.63168	-598.32244	626.67959	53.68581	-576.17210	603.19059	70.53985	-667.48434	514.59852	1558.75594	-663.17909	553.24230	1558.72499	-340.54798	626.21619	1510.29537	-491.44808	505.10895	1589.08989	-496.68342	573.15577	1506.29788	-634.39939	462.42809	1526.53557	-640.56153	612.94455	1515.57835	-366.56271	498.90293	1522.21097	-342.00858	571.97189	1480.95241	-265.43490	523.45213	1429.74798	-255.10882	574.85795	1384.66746	-226.92725	526.16919	1289.89403	-144.06969	522.23585	1241.49606	-202.34857	488.11969	1466.77164	-744.36633	452.87707	1388.82803	-740.26053	508.63322	1397.31499	-789.26523	462.82675	1296.67614	-870.30080	464.31897	1254.66181	-810.68659	612.62973	1312.59920	-145.86034	773.26263	1309.56518	-212.41533	779.30263	1291.68436	-151.80523	549.42917	1324.13176	-873.84573	712.90344	1330.43639	-817.47800	710.20882	1319.43877	-877.49372	601.79502	999.39086	-401.10395	566.18961	1005.98619	-614.60455	
66	0.55000	619.39808	1111.40834	-639.71356	655.72985	1107.58013	-387.99593	463.17440	1142.37577	-533.17167	481.28168	1143.18507	-435.75808	628.84495	877.44191	-327.90560	643.07222	753.22712	-358.61802	557.24025	637.37422	-329.47348	548.38774	556.31046	-330.11078	541.14926	560.74279	-443.19482	542.67125	870.16097	-681.94810	589.14629	763.84273	-658.61947	526.97896	659.02706	-651.38281	515.29107	574.62901	-643.86934	527.62856	569.44725	-529.82019	562.54318	430.58117	-378.15068	504.54572	352.89108	-306.64772	535.03652	234.13684	-363.10307	486.51860	139.41430	-310.75377	499.30340	139.85580	-392.62711	534.52004	432.89544	-589.15841	477.60598	327.78902	-646.78822	515.35366	217.90531	-603.96260	479.93777	141.60130	-565.23681	465.02325	140.24441	-641.55793	417.59686	105.63622	-347.57139	630.68407	57.88525	-392.73397	624.36267	71.13908	-300.50744	404.27342	104.62985	-598.34137	626.70098	53.67378	-576.13900	603.20308	70.53718	-667.46255	514.57554	1558.75984	-663.16238	553.24437	1558.70211	-340.51455	626.20006	1510.27396	-491.40231	505.10102	1589.06063	-496.64300	573.15719	1506.28864	-634.43727	462.41699	1526.53594	-640.56824	612.95630	1515.56743	-366.48598	498.89715	1522.19364	-341.97136	571.99145	1480.92096	-265.40679	523.46883	1429.72078	-255.07557	574.86610	1384.63588	-226.91893	526.18905	1289.87224	-144.04550	522.25010	1241.49432	-202.34046	488.06645	1466.79202	-744.30813	452.89269	1388.86352	-740.24696	508.62487	1397.30727	-789.27632	462.79330	1296.66742	-870.28559	464.31851	1254.64141	-810.67918	612.65563	1312.56029	-145.83443	773.26719	1309.55184	-212.42603	779.31082	1291.66521	-151.80540	549.40296	1324.12428	-873.84551	712.84369	1330.37775	-817.48805	710.17691	1319.43722	-877.51562	601.76714	999.37981	-401.08134	566.24358	1005.95892	-614.59956	
